name analog
datacolumns 19
datarows 23
range 0.41600000000000004 0.427
endheader
time	ground_force_vx	ground_force_vy	ground_force_vz	ground_force_px	ground_force_py	ground_force_pz	l_ground_force_vx	l_ground_force_vy	l_ground_force_vz	l_ground_force_px	l_ground_force_py	l_ground_force_pz	ground_torque_x	ground_torque_y	ground_torque_z	l_ground_torque_x	l_ground_torque_y	l_ground_torque_z
0.41600000000000004	-0.0	-0.0	-0.0	0.0566584467887878	10.36080837249756	-403.4603576660156	3.8112635612487793	-6.960984230041504	-406.7486572265625	-0.0	-0.0	-0.0	-0.0	-0.0	-0.0	124395.25	378.7255859375	-8719.181640625
0.4165	-0.0	-0.0	-0.0	0.5279069542884827	11.030120849609377	-408.9095458984375	3.8212857246398926	-6.892437934875488	-409.166015625	-0.0	-0.0	-0.0	-0.0	-0.0	-0.0	125632.59375	35.38808059692383	-8660.9326171875
0.417	-0.0	-0.0	-0.0	1.1709892749786377	10.955544471740724	-411.1163024902344	3.903274536132813	-7.238959789276123	-413.4090270996094	-0.0	-0.0	-0.0	-0.0	-0.0	-0.0	126271.6953125	197.74159240722656	-8570.822265625
0.4175	-0.0	-0.0	-0.0	2.389683246612549	10.862519264221191	-415.6627197265625	3.814563751220703	-6.991281509399414	-418.2288208007813	-0.0	-0.0	-0.0	-0.0	-0.0	-0.0	128145.015625	-27.30673599243164	-8517.3017578125
0.418	-0.0	-0.0	-0.0	3.3162336349487305	10.36227321624756	-420.2994079589844	4.424909591674805	-7.330699920654297	-422.1522216796875	-0.0	-0.0	-0.0	-0.0	-0.0	-0.0	129565.796875	-169.32102966308594	-8456.5224609375
0.4185	-0.0	-0.0	-0.0	5.0771307945251465	10.614378929138184	-429.3733520507813	4.627423286437988	-7.08013391494751	-428.337890625	-0.0	-0.0	-0.0	-0.0	-0.0	-0.0	131536.765625	-447.3653564453125	-8453.96875
0.419	-0.0	-0.0	-0.0	7.570944309234619	10.432236671447754	-438.8923034667969	5.592443943023682	-7.224136829376221	-436.4539489746094	-0.0	-0.0	-0.0	-0.0	-0.0	-0.0	134254.390625	-568.8298950195312	-8364.341796875
0.4195	-0.0	-0.0	-0.0	9.97140884399414	10.31091594696045	-449.1330871582031	6.79358434677124	-6.815563201904297	-446.88482666015625	-0.0	-0.0	-0.0	-0.0	-0.0	-0.0	137460.109375	-916.71142578125	-8103.8779296875
0.42	-0.0	-0.0	-0.0	12.39615535736084	9.796140670776367	-461.1554565429688	7.621555328369141	-6.2821478843688965	-458.4509887695313	-0.0	-0.0	-0.0	-0.0	-0.0	-0.0	141270.25	-1609.520263671875	-7919.005859375
0.4205	-0.0	-0.0	-0.0	16.563987731933594	9.006333351135254	-474.2217102050781	9.650240898132324	-5.932872772216797	-472.5847473144531	-0.0	-0.0	-0.0	-0.0	-0.0	-0.0	145477.1875	-1961.5733642578125	-7502.21826171875
0.421	-0.0	-0.0	-0.0	20.416488647460938	8.212703704833984	-488.414306640625	11.528482437133787	-5.130462169647217	-487.9751281738281	-0.0	-0.0	-0.0	-0.0	-0.0	-0.0	149866.328125	-2597.14599609375	-6930.5576171875
0.4215	-0.0	-0.0	-0.0	24.447967529296875	8.128005027770996	-503.6006164550781	14.150076866149902	-4.439787864685059	-500.000732421875	-0.0	-0.0	-0.0	-0.0	-0.0	-0.0	155315.765625	-3154.809814453125	-6390.53515625
0.422	-0.0	-0.0	-0.0	28.27973175048828	7.402169227600098	-519.0540161132812	16.75827980041504	-4.235429763793945	-517.7443237304688	-0.0	-0.0	-0.0	-0.0	-0.0	-0.0	160850.078125	-3865.334228515625	-5532.291015625
0.4225	-0.0	-0.0	-0.0	32.45051193237305	7.558410167694092	-537.0115356445312	20.387075424194336	-3.25565242767334	-536.6137084960938	-0.0	-0.0	-0.0	-0.0	-0.0	-0.0	166765.390625	-4315.53515625	-4646.32470703125
0.423	-0.0	-0.0	-0.0	35.492366790771484	6.8585734367370605	-549.8126220703125	23.92285919189453	-3.335563898086548	-557.1806030273438	-0.0	-0.0	-0.0	-0.0	-0.0	-0.0	173061.890625	-4929.14453125	-3691.83837890625
0.4235	-0.0	-0.0	-0.0	40.113075256347656	6.087976455688477	-566.8179321289062	27.8173828125	-2.4813711643218994	-577.6641235351562	-0.0	-0.0	-0.0	-0.0	-0.0	-0.0	179366.625	-5860.95166015625	-2570.04541015625
0.424	-0.0	-0.0	-0.0	44.4976692199707	6.220768928527832	-583.3623046875	31.48378562927246	-2.30061674118042	-594.2224731445312	-0.0	-0.0	-0.0	-0.0	-0.0	-0.0	185309.578125	-6529.11328125	-1585.764892578125
0.4245	-0.0	-0.0	-0.0	49.55914688110352	6.863040924072266	-600.2216186523438	34.58853912353516	-2.552701711654663	-613.0761108398438	-0.0	-0.0	-0.0	-0.0	-0.0	-0.0	190973.84375	-7131.41259765625	-721.996337890625
0.425	-0.0	-0.0	-0.0	55.73292922973633	7.65576696395874	-618.5653686523438	37.240909576416016	-1.9781630039215088	-632.1401977539062	-0.0	-0.0	-0.0	-0.0	-0.0	-0.0	196676.25	-7672.33740234375	-42.182861328125
0.4255	-0.0	-0.0	-0.0	61.526588439941406	8.518335342407227	-633.1192016601562	39.658180236816406	-3.338486194610596	-647.2044067382812	-0.0	-0.0	-0.0	-0.0	-0.0	-0.0	201643.921875	-8052.58740234375	525.6881103515625
0.426	-0.0	-0.0	-0.0	66.50749969482422	9.710379600524902	-648.3809204101562	42.2789306640625	-3.895143747329712	-662.6187744140625	-0.0	-0.0	-0.0	-0.0	-0.0	-0.0	206577.328125	-8212.33984375	942.6261596679688
0.4265	-0.0	-0.0	-0.0	70.78894805908203	10.774965286254885	-661.3309936523438	43.84606170654297	-5.815530776977539	-676.9328002929688	-0.0	-0.0	-0.0	-0.0	-0.0	-0.0	211186.015625	-9093.1650390625	1361.5201416015625
0.427	-0.0	-0.0	-0.0	74.83274841308594	11.60677433013916	-674.8286743164062	45.92900848388672	-7.414406299591064	-693.3239135742188	-0.0	-0.0	-0.0	-0.0	-0.0	-0.0	215990.421875	-9028.923828125	1751.2957763671875
